<?xml version="1.0" encoding="UTF-8" standalone="no"?>
<!-- Created with Inkscape (http://www.inkscape.org/) -->

<svg
   xmlns:dc="http://purl.org/dc/elements/1.1/"
   xmlns:cc="http://creativecommons.org/ns#"
   xmlns:rdf="http://www.w3.org/1999/02/22-rdf-syntax-ns#"
   xmlns:svg="http://www.w3.org/2000/svg"
   xmlns="http://www.w3.org/2000/svg"
   xmlns:sodipodi="http://sodipodi.sourceforge.net/DTD/sodipodi-0.dtd"
   xmlns:inkscape="http://www.inkscape.org/namespaces/inkscape"
   version="1.1"
   id="svg2"
   xml:space="preserve"
   width="212"
   height="112"
   viewBox="0 0 212 112"
   sodipodi:docname="mukn-name2.svg"
   inkscape:version="0.92.4 (5da689c313, 2019-01-14)"><metadata
     id="metadata8"><rdf:RDF><cc:Work
         rdf:about=""><dc:format>image/svg+xml</dc:format><dc:type
           rdf:resource="http://purl.org/dc/dcmitype/StillImage" /><dc:title></dc:title></cc:Work></rdf:RDF></metadata><defs
     id="defs6" /><sodipodi:namedview
     pagecolor="#ffffff"
     bordercolor="#666666"
     borderopacity="1"
     objecttolerance="10"
     gridtolerance="10"
     guidetolerance="10"
     inkscape:pageopacity="0"
     inkscape:pageshadow="2"
     inkscape:window-width="2558"
     inkscape:window-height="1438"
     id="namedview4"
     showgrid="false"
     inkscape:zoom="2.1071429"
     inkscape:cx="106.94915"
     inkscape:cy="56"
     inkscape:window-x="1"
     inkscape:window-y="1"
     inkscape:window-maximized="0"
     inkscape:current-layer="g10" /><g
     id="g10"
     inkscape:groupmode="layer"
     inkscape:label="ink_ext_XXXXXX"
     transform="matrix(1.3333333,0,0,-1.3333333,0,112)"><g
       id="g12"
       transform="scale(0.1)"><path
         d="m 28.9102,573.238 c -7.3086,0 -13.6797,2.543 -19.07036,7.66 -5.23046,4.883 -7.80859,11.133 -7.80859,18.75 v 151.563 c 0,10.82 2.02734,21.129 6.08984,30.937 4.14841,9.762 9.92971,18.442 17.34771,25.942 7.5,7.379 16.0898,13.16 25.7812,17.34 9.6914,4.14 20.0391,6.25 31.0898,6.25 10.3204,0 20.0392,-1.879 29.2192,-5.629 9.14,-3.672 17.39,-8.86 24.691,-15.621 7.27,6.761 15.469,11.949 24.531,15.621 9.141,3.75 18.91,5.629 29.219,5.629 11.02,0 21.449,-2.11 31.25,-6.25 9.879,-4.18 18.52,-9.961 25.941,-17.34 7.379,-7.5 13.161,-16.18 17.34,-25.942 4.141,-9.808 6.25,-20.117 6.25,-30.937 V 599.648 c 0,-7.308 -2.621,-13.558 -7.812,-18.75 -2.418,-2.418 -5.27,-4.296 -8.59,-5.628 -3.359,-1.36 -6.801,-2.032 -10.32,-2.032 -3.75,0 -7.297,0.672 -10.618,2.032 -3.242,1.332 -6.019,3.21 -8.281,5.628 -5.32,5.082 -7.969,11.332 -7.969,18.75 V 749.18 c 0,3.519 -0.781,6.949 -2.351,10.308 -1.481,3.321 -3.43,6.25 -5.93,8.75 -2.5,2.383 -5.469,4.262 -8.91,5.633 -3.359,1.438 -6.84,2.18 -10.469,2.18 -7.5,0 -13.672,-2.571 -18.441,-7.653 -5,-5.238 -7.61,-11.488 -7.809,-18.75 V 599.961 c 0,-7.422 -2.621,-13.711 -7.812,-18.91 -2.5,-2.5 -5.43,-4.449 -8.75,-5.781 -3.239,-1.36 -6.68,-2.032 -10.309,-2.032 -7.43,0 -13.711,2.582 -18.91,7.813 -5.23,5.199 -7.809,11.488 -7.809,18.91 v 148.91 c 0,3.75 -0.711,7.258 -2.031,10.617 -1.371,3.321 -3.25,6.25 -5.629,8.75 -2.4216,2.383 -5.2693,4.262 -8.5896,5.633 -3.3633,1.438 -6.8828,2.18 -10.6328,2.18 -7.6094,0 -14.0195,-2.61 -19.2188,-7.813 -2.5,-2.5 -4.4882,-5.429 -5.9296,-8.75 -1.3711,-3.359 -2.0391,-6.789 -2.0391,-10.308 V 599.648 c 0,-7.617 -2.6094,-13.867 -7.8125,-18.75 -2.5,-2.418 -5.4297,-4.296 -8.75,-5.628 -3.3594,-1.36 -6.7188,-2.032 -10.1484,-2.032 z"
         style="fill:#0000ff;fill-opacity:1;fill-rule:nonzero;stroke:none"
         id="path14"
         inkscape:connector-curvature="0" /><path
         d="m 403.199,571.051 c -12.5,0 -24.449,2.39 -35.777,7.187 -11.25,4.883 -21.211,11.602 -29.844,20.16 -8.558,8.633 -15.277,18.512 -20.156,29.692 -4.801,11.25 -7.192,23.121 -7.192,35.621 v 72.187 c 0,3.512 0.668,6.872 2.04,10 1.441,3.122 3.32,5.864 5.621,8.282 2.379,2.269 5.16,4.101 8.281,5.468 3.207,1.332 6.488,2.032 9.848,2.032 3.511,0 6.871,-0.7 10,-2.032 3.199,-1.367 6.089,-3.199 8.589,-5.468 2.379,-2.418 4.262,-5.16 5.621,-8.282 1.329,-3.128 2.04,-6.488 2.04,-10 V 663.09 c 0,-5.75 1.011,-11.059 3.121,-15.942 2.07,-4.918 5,-9.058 8.75,-12.5 3.75,-3.668 8.05,-6.527 12.968,-8.597 5,-1.992 10.352,-2.961 16.09,-2.961 5.629,0 10.711,0.969 15.321,2.961 4.57,2.07 8.468,5 11.71,8.75 3.129,3.64 5.508,7.898 7.192,12.82 1.637,5 2.5,10.348 2.5,16.09 v 72.187 c 0,3.442 0.699,6.723 2.187,9.84 1.442,3.211 3.442,6.024 5.942,8.442 2.258,2.269 5.039,4.101 8.277,5.468 3.32,1.332 6.723,2.032 10.152,2.032 3.52,0 6.879,-0.7 10,-2.032 3.129,-1.367 5.86,-3.199 8.29,-5.468 2.261,-2.418 4.058,-5.16 5.308,-8.282 1.25,-3.128 1.871,-6.488 1.871,-10 v -72.187 c 0,-12.621 -2.179,-24.531 -6.558,-35.781 -4.371,-11.168 -10.59,-21.02 -18.59,-29.532 -8.129,-8.558 -17.66,-15.277 -28.602,-20.16 -10.859,-4.797 -22.5,-7.187 -35,-7.187 z"
         style="fill:#0000ff;fill-opacity:1;fill-rule:nonzero;stroke:none"
         id="path16"
         inkscape:connector-curvature="0" /><path
         d="m 593.828,571.52 c -9.687,0 -18.906,1.8 -27.656,5.468 -8.75,3.75 -16.371,8.91 -22.813,15.473 -6.558,6.559 -11.718,14.141 -15.468,22.809 -3.75,8.75 -5.621,17.968 -5.621,27.66 v 94.84 c 0,2.582 0.5,5.082 1.558,7.5 1.012,2.5 2.5,4.691 4.371,6.57 1.762,1.75 3.832,3.121 6.25,4.058 2.391,1.012 4.891,1.563 7.5,1.563 2.582,0 5.16,-0.551 7.66,-1.563 2.5,-0.937 4.692,-2.308 6.563,-4.058 1.879,-1.879 3.316,-4.07 4.379,-6.57 1.129,-2.418 1.719,-4.918 1.719,-7.5 v -18.75 h 45 c 2.691,0 5.191,-0.54 7.5,-1.559 2.378,-1.051 4.531,-2.461 6.402,-4.223 1.758,-1.867 3.168,-4.019 4.219,-6.398 1.019,-2.309 1.558,-4.809 1.558,-7.5 0,-5.121 -1.949,-9.5 -5.777,-13.129 -1.871,-1.801 -4.024,-3.199 -6.402,-4.223 -2.309,-0.937 -4.809,-1.398 -7.5,-1.398 h -45 v -37.969 c 0,-4.383 0.781,-8.562 2.339,-12.5 1.563,-3.992 3.832,-7.422 6.871,-10.32 2.899,-3.039 6.25,-5.391 10,-7.031 3.829,-1.559 7.969,-2.34 12.348,-2.34 8.512,0 15.231,2.269 20.152,6.871 4.692,4.379 9.61,6.57 14.848,6.57 2.192,0 4.371,-0.473 6.563,-1.41 2.187,-0.859 4.058,-2.109 5.629,-3.75 3.628,-3.871 5.46,-8.199 5.46,-12.973 0,-3.039 -0.621,-6.008 -1.871,-8.898 -1.25,-2.93 -2.968,-5.551 -5.16,-7.82 -6.168,-5.86 -13.078,-10.231 -20.777,-13.122 -7.731,-2.886 -16.012,-4.378 -24.844,-4.378 z"
         style="fill:#000000;fill-opacity:1;fill-rule:nonzero;stroke:none"
         id="path18"
         inkscape:connector-curvature="0" /><path
         d="m 732.461,571.68 c -9.371,0 -18.359,1.761 -26.871,5.308 -8.442,3.633 -15.899,8.672 -22.352,15.16 -6.476,6.442 -11.519,13.832 -15.148,22.192 -3.68,8.43 -5.469,17.34 -5.469,26.711 v 54.219 c 0,2.582 0.5,5.039 1.559,7.351 1.019,2.379 2.422,4.449 4.218,6.25 1.762,1.75 3.832,3.16 6.25,4.219 2.383,1.012 4.84,1.558 7.34,1.558 2.703,0 5.203,-0.546 7.5,-1.558 2.391,-1.059 4.532,-2.469 6.41,-4.219 1.762,-1.801 3.161,-3.871 4.223,-6.25 1.008,-2.312 1.559,-4.769 1.559,-7.351 v -54.68 c 0,-4.301 0.781,-8.25 2.34,-11.879 1.57,-3.672 3.75,-6.832 6.57,-9.531 2.808,-2.731 6.012,-4.84 9.68,-6.41 3.75,-1.481 7.82,-2.18 12.191,-2.18 4.141,0 7.969,0.699 11.41,2.18 3.43,1.57 6.328,3.75 8.75,6.57 2.379,2.808 4.219,6.012 5.469,9.68 1.25,3.75 1.871,7.742 1.871,12.031 v 54.219 c 0,2.5 0.508,4.929 1.559,7.351 1.14,2.379 2.582,4.449 4.378,6.25 1.762,1.75 3.832,3.16 6.25,4.219 2.5,1.012 5.043,1.558 7.653,1.558 2.699,0 5.199,-0.546 7.5,-1.558 2.39,-1.059 4.461,-2.469 6.25,-4.219 1.758,-1.801 3.051,-3.871 3.91,-6.25 0.937,-2.312 1.41,-4.769 1.41,-7.351 v -54.219 c 0,-9.492 -1.641,-18.43 -4.851,-26.871 -3.239,-8.36 -7.93,-15.7 -14.059,-22.032 -6.051,-6.488 -13.121,-11.527 -21.25,-15.16 -8.121,-3.547 -16.871,-5.308 -26.25,-5.308 z"
         style="fill:#000000;fill-opacity:1;fill-rule:nonzero;stroke:none"
         id="path20"
         inkscape:connector-curvature="0" /><path
         d="m 889.922,571.68 c -9.692,0 -18.871,1.8 -27.5,5.468 -8.672,3.633 -16.332,8.793 -22.973,15.473 -6.558,6.559 -11.719,14.141 -15.469,22.809 -3.75,8.629 -5.621,17.808 -5.621,27.5 0,9.691 1.871,18.91 5.621,27.66 3.75,8.75 8.911,16.441 15.469,23.121 6.641,6.559 14.301,11.641 22.973,15.309 8.629,3.75 17.808,5.628 27.5,5.628 9.566,0 18.668,-1.839 27.348,-5.468 8.628,-3.668 16.171,-8.711 22.652,-15.16 6.558,-6.481 11.719,-14.02 15.469,-22.649 3.75,-8.562 5.699,-17.621 5.937,-27.191 v -52.66 c 0,-5.54 -1.879,-10.231 -5.629,-14.059 -1.871,-1.871 -4.058,-3.281 -6.558,-4.223 -2.422,-1.008 -4.961,-1.558 -7.661,-1.558 -3.671,0 -6.871,0.781 -9.679,2.34 -2.742,1.64 -4.961,3.949 -6.723,6.878 -11.058,-6.168 -22.777,-9.218 -35.156,-9.218 z m 0,39.058 c 4.379,0 8.519,0.821 12.5,2.5 4.058,1.641 7.539,3.953 10.469,6.883 3.007,3 5.347,6.438 7.031,10.309 1.637,3.949 2.5,8.121 2.5,12.5 0,4.371 -0.863,8.48 -2.5,12.34 -1.684,3.949 -4.024,7.5 -7.031,10.628 -2.93,2.891 -6.411,5.192 -10.469,6.872 -3.981,1.64 -8.121,2.5 -12.5,2.5 -4.301,0 -8.402,-0.86 -12.344,-2.5 -3.988,-1.68 -7.457,-3.981 -10.469,-6.872 -3.05,-3.128 -5.39,-6.679 -7.031,-10.628 -1.68,-3.86 -2.5,-7.969 -2.5,-12.34 0,-4.379 0.82,-8.551 2.5,-12.5 1.641,-3.871 3.981,-7.309 7.031,-10.309 3.012,-2.93 6.481,-5.242 10.469,-6.883 3.942,-1.679 8.043,-2.5 12.344,-2.5 z"
         style="fill:#000000;fill-opacity:1;fill-rule:nonzero;stroke:none"
         id="path22"
         inkscape:connector-curvature="0" /><path
         d="m 1044.22,573.238 c -6.68,0 -13.09,1.141 -19.22,3.442 -6.17,2.269 -11.56,5.511 -16.25,9.691 -4.69,4.367 -8.36,9.449 -10.941,15.309 -2.61,5.82 -3.899,12.191 -3.899,19.058 v 125 c 0,5.512 1.789,10.16 5.469,13.91 3.631,3.75 8.041,5.622 13.281,5.622 2.57,0 5.15,-0.54 7.65,-1.559 2.5,-1.051 4.69,-2.422 6.57,-4.063 1.75,-1.878 3.16,-4.027 4.21,-6.41 1.14,-2.297 1.72,-4.797 1.72,-7.5 V 619.801 c 0.39,-5.539 4.22,-8.281 11.41,-8.281 2.69,0 5.23,-0.54 7.66,-1.559 2.38,-0.941 4.41,-2.301 6.09,-4.063 1.76,-1.796 3.12,-3.867 4.06,-6.25 0.94,-2.308 1.41,-4.769 1.41,-7.347 0,-2.61 -0.47,-5.11 -1.41,-7.5 -0.94,-2.301 -2.3,-4.332 -4.06,-6.09 -1.68,-1.68 -3.71,-3.051 -6.09,-4.063 -2.43,-0.937 -4.97,-1.41 -7.66,-1.41 z"
         style="fill:#000000;fill-opacity:1;fill-rule:nonzero;stroke:none"
         id="path24"
         inkscape:connector-curvature="0" /><path
         d="m 200.699,48.8281 c -6.988,0 -12.5,1.8711 -16.558,5.6211 -3.981,3.75 -5.942,8.75 -5.942,15 0,6.0196 1.922,10.5508 5.781,13.6016 3.95,3 9.54,4.5273 16.719,4.5273 h 54.223 c 1.558,0 3.199,0.4727 5,1.4024 1.758,1.0195 3.359,2.3906 4.848,4.0703 3.511,4.0586 5.308,8.8982 5.308,14.5272 0,5.391 -1.879,10.231 -5.629,14.531 -1.48,1.641 -3.121,2.891 -5,3.75 -1.789,0.942 -3.429,1.411 -5,1.411 h -22.808 c -8.121,0 -15.86,1.281 -23.121,3.902 -7.309,2.578 -13.598,6.328 -18.911,11.25 -5.55,5 -9.839,10.816 -12.968,17.5 -3.051,6.637 -4.532,13.988 -4.532,22.027 0,17.071 5.821,31.449 17.5,43.129 5.391,5.391 11.719,9.613 18.911,12.652 7.261,3.008 15,4.54 23.121,4.54 h 48.129 c 7.179,0 12.808,-1.649 16.871,-4.848 4.058,-3.242 6.089,-7.891 6.089,-13.902 0,-6.68 -2.031,-11.719 -6.089,-15.161 -3.981,-3.437 -9.61,-5.16 -16.871,-5.16 h -54.071 c -1.558,0 -3.121,-0.39 -4.679,-1.09 -1.571,-0.738 -3.129,-1.8 -4.692,-3.129 -1.558,-1.558 -2.808,-3.71 -3.75,-6.402 -0.937,-2.617 -1.406,-5.308 -1.406,-8.129 0,-5.109 1.719,-9.527 5.156,-13.277 1.332,-1.563 2.813,-2.813 4.371,-3.75 1.641,-0.942 3.172,-1.481 4.531,-1.563 h 23.75 c 8.129,0 15.821,-1.371 23.129,-4.058 7.379,-2.742 13.789,-6.571 19.219,-11.571 5.621,-5.109 9.922,-11.171 12.973,-18.121 3.121,-6.879 4.679,-14.339 4.679,-22.339 0,-8.051 -1.519,-15.7114 -4.531,-22.9692 -2.929,-7.3125 -7.109,-13.711 -12.5,-19.2227 -5.308,-5.6289 -11.519,-10.1172 -18.59,-13.4375 -7.109,-3.2422 -14.648,-5 -22.66,-5.3125 z"
         style="fill:#000000;fill-opacity:1;fill-rule:nonzero;stroke:none"
         id="path26"
         inkscape:connector-curvature="0" /><path
         d="m 454.449,3.51953 c -2.609,0 -5.109,0.53906 -7.5,1.5586 -2.301,1.05078 -4.328,2.46093 -6.09,4.22265 -3.75,3.66802 -5.629,8.23832 -5.629,13.75002 v 37.6484 c -10.621,-7.3008 -21.71,-10.9297 -33.281,-10.9297 -9.918,0 -19.289,1.8711 -28.121,5.6211 -8.867,3.75 -16.68,8.9883 -23.437,15.7813 -6.68,6.6367 -11.871,14.4179 -15.621,23.2773 -3.75,8.8318 -5.629,18.2808 -5.629,28.2808 v 52.969 c 0,2.582 0.468,5.16 1.41,7.66 1.008,2.5 2.418,4.61 4.219,6.411 3.82,3.75 8.429,5.621 13.75,5.621 2.691,0 5.23,-0.551 7.652,-1.563 2.379,-0.937 4.527,-2.308 6.406,-4.058 1.762,-1.801 3.16,-3.911 4.223,-6.411 1.008,-2.5 1.558,-5.078 1.558,-7.66 V 122.73 c 0,-4.609 0.86,-8.902 2.661,-12.96 1.75,-3.989 4.21,-7.5 7.339,-10.6294 3.121,-3.1211 6.641,-5.6211 10.621,-7.5 4.071,-1.8008 8.36,-2.6601 12.969,-2.6601 4.262,0 8.442,0.8593 12.5,2.6601 4.141,1.8789 7.821,4.3789 10.942,7.5 3.129,3.1294 5.507,6.6404 7.187,10.6294 1.762,4.058 2.652,8.351 2.652,12.96 v 52.969 c 0,2.582 0.508,5.16 1.571,7.66 1.008,2.5 2.418,4.61 4.219,6.411 3.75,3.75 8.32,5.621 13.75,5.621 2.57,0 5.07,-0.551 7.5,-1.563 2.378,-0.937 4.531,-2.308 6.402,-4.058 1.758,-1.801 3.168,-3.911 4.219,-6.411 1.129,-2.5 1.718,-5.078 1.718,-7.66 V 23.0508 c 0,-2.582 -0.55,-5.0391 -1.558,-7.3516 -1.063,-2.3789 -2.5,-4.5273 -4.379,-6.39842 -1.871,-1.76172 -4.063,-3.17187 -6.563,-4.22265 -2.5,-1.01954 -5.078,-1.5586 -7.66,-1.5586 z"
         style="fill:#000000;fill-opacity:1;fill-rule:nonzero;stroke:none"
         id="path28"
         inkscape:connector-curvature="0" /><path
         d="m 508.91,48.8281 c -5.121,0 -9.34,1.8711 -12.66,5.6211 -3.441,3.6406 -5.16,8.4414 -5.16,14.3789 0,5.7032 1.609,10.3125 4.851,13.75 3.321,3.4414 7.649,5.1524 12.969,5.1524 h 52.5 c 2.18,0 3.981,0.4687 5.469,1.4101 1.75,1.1289 2.652,2.9688 2.652,5.4688 0,2.5 -0.902,4.2187 -2.652,5.1601 -1.18,0.6215 -3.051,0.9295 -5.629,0.9295 h -23.91 c -6.25,0 -12.11,1.25 -17.5,3.75 -5.309,2.5 -9.961,5.942 -13.899,10.321 -3.871,4.371 -6.882,9.289 -9.062,14.839 -2.188,5.621 -3.289,11.411 -3.289,17.34 0,5.711 1.14,11.25 3.441,16.571 2.27,5.39 5.391,10.031 9.379,13.902 4.141,4.058 8.82,7.187 14.059,9.379 5.312,2.258 10.941,3.429 16.871,3.429 h 45.469 c 5.511,0 10.043,-1.64 13.601,-4.839 3.75,-3.551 5.621,-8.243 5.621,-14.063 0,-5.738 -1.722,-10.469 -5.152,-14.219 -1.57,-1.879 -3.52,-3.359 -5.789,-4.379 -2.301,-1.05 -4.68,-1.558 -7.18,-1.558 h -45.789 c -1.48,0 -2.769,-0.551 -3.902,-1.563 -1.168,-1.058 -1.719,-2.418 -1.719,-4.058 0,-2.11 0.512,-3.602 1.559,-4.531 1.14,-0.86 2.39,-1.25 3.75,-1.25 h 26.722 c 6.25,0 12.071,-1.25 17.5,-3.75 5.508,-2.43 10.239,-5.79 14.219,-10.161 3.828,-4.3 6.871,-9.218 9.059,-14.839 2.191,-5.551 3.281,-11.3286 3.281,-17.3481 0,-5.9414 -1.051,-11.5625 -3.121,-16.8711 -2.11,-5.3203 -5,-10.082 -8.75,-14.2227 -3.989,-4.1797 -8.598,-7.457 -13.91,-9.8476 -5.231,-2.4219 -10.899,-3.711 -17.028,-3.9024 z"
         style="fill:#000000;fill-opacity:1;fill-rule:nonzero;stroke:none"
         id="path30"
         inkscape:connector-curvature="0" /><path
         d="m 698.051,47.1094 c -9.692,0 -18.91,1.8008 -27.66,5.4687 -8.75,3.75 -16.371,8.9024 -22.813,15.4727 -6.558,6.5586 -11.719,14.1406 -15.469,22.8086 -3.75,8.75 -5.629,17.9686 -5.629,27.6606 v 94.839 c 0,2.582 0.508,5.082 1.571,7.5 1.008,2.5 2.5,4.692 4.371,6.563 1.758,1.758 3.828,3.129 6.25,4.058 2.379,1.02 4.879,1.571 7.5,1.571 2.578,0 5.156,-0.551 7.656,-1.571 2.5,-0.929 4.692,-2.3 6.563,-4.058 1.879,-1.871 3.32,-4.063 4.379,-6.563 1.128,-2.418 1.71,-4.918 1.71,-7.5 v -18.75 h 45 c 2.7,0 5.2,-0.55 7.5,-1.558 2.391,-1.063 4.54,-2.461 6.411,-4.223 1.757,-1.879 3.16,-4.027 4.218,-6.406 1.012,-2.301 1.563,-4.801 1.563,-7.5 0,-5.121 -1.953,-9.492 -5.781,-13.121 -1.871,-1.801 -4.02,-3.211 -6.411,-4.223 -2.3,-0.937 -4.8,-1.406 -7.5,-1.406 h -45 v -37.973 c 0,-4.371 0.79,-8.551 2.348,-12.5 1.563,-3.98 3.832,-7.4177 6.871,-10.3084 2.891,-3.0508 6.25,-5.3906 10,-7.0312 3.832,-1.5586 7.973,-2.3399 12.352,-2.3399 8.508,0 15.23,2.2618 20.148,6.8711 4.692,4.3789 9.61,6.5586 14.852,6.5586 2.179,0 4.371,-0.4687 6.558,-1.3984 2.192,-0.8594 4.063,-2.1094 5.621,-3.75 3.641,-3.8711 5.469,-8.211 5.469,-12.9727 0,-3.0468 -0.621,-6.0195 -1.871,-8.9062 -1.25,-2.9336 -2.969,-5.543 -5.156,-7.8125 C 737.5,58.75 730.59,54.3789 722.891,51.4805 715.16,48.5898 706.879,47.1094 698.051,47.1094 Z"
         style="fill:#000000;fill-opacity:1;fill-rule:nonzero;stroke:none"
         id="path32"
         inkscape:connector-curvature="0" /><path
         d="m 832.461,47.2695 c -9.691,0 -18.981,1.7891 -27.813,5.461 -8.75,3.75 -16.488,8.9101 -23.128,15.4687 -6.68,6.6406 -11.872,14.2617 -15.622,22.8203 -3.75,8.6289 -5.628,17.8085 -5.628,27.5005 0,9.761 1.878,19.058 5.628,27.808 3.75,8.75 8.942,16.442 15.622,23.121 6.64,6.449 14.378,11.492 23.128,15.16 8.75,3.75 18.012,5.621 27.813,5.621 9.449,0 18.519,-1.832 27.187,-5.46 8.75,-3.68 16.442,-8.719 23.122,-15.161 6.57,-6.488 11.718,-14.019 15.468,-22.66 3.832,-8.668 5.864,-17.769 6.102,-27.34 0,-5.629 -1.84,-10.121 -5.469,-13.437 -3.562,-3.363 -8.133,-5 -13.75,-5 h -81.25 c 3.199,-5.1212 7.258,-9.1407 12.18,-12.0314 5,-2.9297 10.469,-4.3711 16.41,-4.3711 3.519,0 6.449,0.2305 8.75,0.7813 2.379,0.6211 4.57,1.4805 6.559,2.6484 3.75,2.3906 7.5,3.6016 11.25,3.6016 5.32,0 9.851,-2.0313 13.601,-6.1016 1.641,-1.8711 2.969,-4.0195 3.899,-6.3984 1.019,-2.4219 1.57,-4.961 1.57,-7.6602 0,-3.4414 -1.02,-6.6406 -2.969,-9.5312 -1.883,-2.9297 -4.652,-5.4297 -8.281,-7.5 -8.559,-4.918 -20,-7.3399 -34.379,-7.3399 z m 31.879,86.4025 c -2.738,5.937 -6.84,10.629 -12.352,14.058 -5.539,3.52 -11.828,5.321 -18.898,5.321 -7,0 -13.129,-1.801 -18.442,-5.321 -5.308,-3.55 -9.339,-8.242 -12.027,-14.058 z"
         style="fill:#000000;fill-opacity:1;fill-rule:nonzero;stroke:none"
         id="path34"
         inkscape:connector-curvature="0" /><path
         d="m 943.238,48.8281 c -5.429,0 -10,1.8711 -13.75,5.6211 -1.789,1.7617 -3.199,3.7891 -4.218,6.1016 -1.051,2.3789 -1.559,4.8789 -1.559,7.5 v 74.0582 c 0,7.192 1.328,13.942 4.059,20.313 2.82,6.328 6.64,11.918 11.57,16.719 4.762,4.879 10.351,8.668 16.711,11.41 6.328,2.687 13.051,4.058 20.16,4.058 12.187,0 23.32,-4.019 33.439,-12.031 10,8.012 21.09,12.031 33.28,12.031 7.07,0 13.91,-1.371 20.47,-4.058 6.56,-2.742 12.34,-6.531 17.34,-11.41 5.08,-4.801 9.06,-10.43 11.88,-16.871 2.89,-6.372 4.37,-13.09 4.37,-20.161 V 68.0508 c 0,-2.6211 -0.54,-5.1211 -1.56,-7.5 -1.05,-2.3125 -2.46,-4.3399 -4.22,-6.1016 -3.75,-3.75 -8.24,-5.6211 -13.44,-5.6211 -5.54,0 -10.11,1.8711 -13.75,5.6211 -1.79,1.7617 -3.2,3.7891 -4.22,6.1016 -1.05,2.3789 -1.56,4.8789 -1.56,7.5 V 141.02 c 0,1.75 -0.47,3.468 -1.4,5.152 -0.86,1.637 -2,3.168 -3.44,4.527 -1.49,1.141 -3.13,2.031 -5,2.66 -1.8,0.7 -3.52,1.09 -5.16,1.09 -3.44,0 -6.48,-1.09 -9.06,-3.277 -2.62,-2.192 -4.18,-4.961 -4.69,-8.281 0,-0.551 0.04,-0.942 0.16,-1.25 V 68.6719 c 0,-5.3125 -1.84,-9.961 -5.47,-13.9024 -1.8,-1.6797 -3.87,-3.0507 -6.25,-4.0703 -2.31,-1.0508 -4.81,-1.5586 -7.5,-1.5586 -5.31,0 -9.92,1.8789 -13.75,5.6289 -3.75,3.8203 -5.629,8.4688 -5.629,13.9024 v 70.4691 l -0.313,1.718 v 0.161 c 0,1.75 -0.386,3.468 -1.09,5.152 -0.738,1.637 -1.718,3.168 -2.968,4.527 -1.371,1.25 -2.891,2.231 -4.532,2.973 -1.679,0.707 -3.398,1.098 -5.16,1.098 -3.437,0 -6.519,-1.059 -9.218,-3.129 -2.61,-2.11 -4.29,-4.692 -5,-7.813 0.199,-1.488 0.32,-2.418 0.32,-2.808 l -0.629,-72.9692 c -0.121,-2.6211 -0.699,-5.1211 -1.723,-7.5 -0.937,-2.3125 -2.297,-4.3399 -4.058,-6.1016 -3.668,-3.75 -8.129,-5.6211 -13.442,-5.6211 z"
         style="fill:#000000;fill-opacity:1;fill-rule:nonzero;stroke:none"
         id="path36"
         inkscape:connector-curvature="0" /><path
         d="m 1133.24,48.8281 c -5.12,0 -9.33,1.8711 -12.65,5.6211 -3.44,3.6406 -5.16,8.4414 -5.16,14.3789 0,5.7032 1.6,10.3125 4.84,13.75 3.32,3.4414 7.66,5.1524 12.97,5.1524 h 52.5 c 2.19,0 3.99,0.4687 5.47,1.4101 1.76,1.1289 2.66,2.9688 2.66,5.4688 0,2.5 -0.9,4.2187 -2.66,5.1601 -1.17,0.6215 -3.05,0.9295 -5.62,0.9295 h -23.91 c -6.25,0 -12.11,1.25 -17.5,3.75 -5.31,2.5 -9.96,5.942 -13.91,10.321 -3.86,4.371 -6.87,9.289 -9.06,14.839 -2.19,5.621 -3.28,11.411 -3.28,17.34 0,5.711 1.13,11.25 3.44,16.571 2.26,5.39 5.39,10.031 9.37,13.902 4.14,4.058 8.83,7.187 14.06,9.379 5.32,2.258 10.94,3.429 16.88,3.429 h 45.47 c 5.51,0 10.04,-1.64 13.59,-4.839 3.75,-3.551 5.63,-8.243 5.63,-14.063 0,-5.738 -1.72,-10.469 -5.16,-14.219 -1.56,-1.879 -3.51,-3.359 -5.78,-4.379 -2.31,-1.05 -4.69,-1.558 -7.19,-1.558 h -45.78 c -1.48,0 -2.77,-0.551 -3.91,-1.563 -1.17,-1.058 -1.71,-2.418 -1.71,-4.058 0,-2.11 0.5,-3.602 1.56,-4.531 1.13,-0.86 2.38,-1.25 3.75,-1.25 h 26.72 c 6.25,0 12.07,-1.25 17.5,-3.75 5.51,-2.43 10.23,-5.79 14.22,-10.161 3.82,-4.3 6.87,-9.218 9.06,-14.839 2.19,-5.551 3.28,-11.3286 3.28,-17.3481 0,-5.9414 -1.05,-11.5625 -3.13,-16.8711 -2.1,-5.3203 -5,-10.082 -8.75,-14.2227 -3.98,-4.1797 -8.59,-7.457 -13.9,-9.8476 -5.24,-2.4219 -10.9,-3.711 -17.03,-3.9024 z"
         style="fill:#000000;fill-opacity:1;fill-rule:nonzero;stroke:none"
         id="path38"
         inkscape:connector-curvature="0" /><path
         d="m 122.852,297.621 c -3.551,0 -6.954,0.617 -10.153,1.867 -3.129,1.332 -5.898,3.211 -8.289,5.633 -2.301,2.258 -4.18,5 -5.6209,8.117 -1.3672,3.133 -2.0274,6.453 -2.0274,10 v 206.883 c 0,3.43 0.6602,6.719 2.0274,9.84 1.4409,3.129 3.3199,5.859 5.6209,8.277 2.391,2.274 5.16,4.063 8.289,5.313 3.199,1.328 6.602,2.039 10.153,2.039 7.269,0 13.359,-2.469 18.277,-7.352 2.391,-2.418 4.262,-5.148 5.633,-8.277 1.328,-3.121 2.027,-6.41 2.027,-9.84 v -65.16 l 92.813,83.437 c 5.507,4.762 11.41,7.192 17.66,7.192 3.316,0 6.558,-0.711 9.687,-2.039 3.199,-1.36 6.09,-3.199 8.59,-5.461 2.383,-2.5 4.301,-5.43 5.781,-8.75 1.559,-3.25 2.34,-6.68 2.34,-10.32 0,-7.11 -2.648,-13.239 -7.961,-18.43 l -90.469,-80.789 94.219,-87.813 c 4.879,-5 7.34,-11.008 7.34,-17.968 0,-3.551 -0.699,-6.95 -2.027,-10.149 -1.371,-3.133 -3.242,-5.902 -5.633,-8.281 -2.418,-2.43 -5.27,-4.34 -8.59,-5.789 -3.238,-1.481 -6.519,-2.18 -9.84,-2.18 -7,0 -13.09,2.578 -18.289,7.809 l -95.621,88.91 v -71.102 c 0,-3.547 -0.699,-6.867 -2.027,-10 -1.371,-3.117 -3.242,-5.859 -5.633,-8.117 -4.918,-5 -11.008,-7.5 -18.277,-7.5 z"
         style="fill:#0000ff;fill-opacity:1;fill-rule:nonzero;stroke:none"
         id="path40"
         inkscape:connector-curvature="0" /><path
         d="m 333.16,297.621 c -3.551,0 -6.949,0.617 -10.148,1.867 -3.242,1.332 -6.102,3.211 -8.602,5.633 -5.308,4.879 -7.961,10.859 -7.961,17.969 v 70.308 c 0,12.5 2.379,24.372 7.18,35.622 4.769,11.332 11.492,21.332 20.16,30 8.512,8.519 18.359,15.16 29.531,19.851 11.25,4.758 23.129,7.18 35.629,7.18 12.571,0 24.68,-2.422 36.25,-7.18 11.563,-4.691 21.75,-11.332 30.621,-19.851 8.828,-8.668 15.782,-18.668 20.782,-30 5,-11.25 7.5,-23.122 7.5,-35.622 V 323.09 c 0,-7.192 -2.422,-13.211 -7.192,-17.969 -2.422,-2.422 -5.148,-4.301 -8.281,-5.633 -3.117,-1.25 -6.481,-1.867 -10,-1.867 -3.668,0 -7.109,0.617 -10.309,1.867 -3.121,1.332 -5.859,3.211 -8.121,5.633 -5.238,4.758 -7.82,10.777 -7.82,17.969 v 70 c -0.231,5.5 -1.52,10.781 -3.899,15.781 -2.308,5 -5.55,9.367 -9.691,13.117 -3.988,3.832 -8.559,6.801 -13.75,8.91 -5.238,2.071 -10.59,3.122 -16.09,3.122 -5.429,0 -10.629,-1.051 -15.629,-3.122 -4.922,-1.988 -9.14,-4.769 -12.66,-8.277 -3.672,-3.672 -6.558,-7.93 -8.75,-12.82 -2.109,-4.922 -3.238,-10.071 -3.43,-15.461 v -71.25 c 0,-7.309 -2.46,-13.289 -7.351,-17.969 -5,-5 -11.008,-7.5 -17.969,-7.5 z"
         style="fill:#0000ff;fill-opacity:1;fill-rule:nonzero;stroke:none"
         id="path42"
         inkscape:connector-curvature="0" /><path
         d="m 589.41,296.051 c -9.68,0 -18.859,1.801 -27.5,5.469 -8.672,3.64 -16.32,8.789 -22.961,15.468 -6.57,6.563 -11.719,14.141 -15.469,22.813 -3.75,8.64 -5.628,17.82 -5.628,27.5 0,9.687 1.878,18.91 5.628,27.66 3.75,8.75 8.899,16.449 15.469,23.129 6.641,6.558 14.289,11.64 22.961,15.308 8.641,3.75 17.82,5.622 27.5,5.622 9.692,0 18.828,-1.872 27.5,-5.622 8.75,-3.75 16.41,-8.867 22.969,-15.308 6.57,-6.68 11.641,-14.379 15.32,-23.129 3.75,-8.75 5.621,-17.973 5.621,-27.66 0,-9.68 -1.84,-18.86 -5.468,-27.5 -3.672,-8.551 -8.832,-16.172 -15.473,-22.813 -6.559,-6.558 -14.219,-11.718 -22.969,-15.468 -8.672,-3.668 -17.808,-5.469 -27.5,-5.469 z m 0,39.07 c 4.379,0 8.52,0.82 12.5,2.5 4.07,1.641 7.539,3.938 10.469,6.867 3.012,3.012 5.351,6.453 7.031,10.313 1.641,3.949 2.5,8.129 2.5,12.5 0,4.379 -0.859,8.48 -2.5,12.347 -1.68,3.942 -4.019,7.5 -7.031,10.622 -2.93,2.89 -6.399,5.199 -10.469,6.878 -3.98,1.641 -8.121,2.5 -12.5,2.5 -4.289,0 -8.39,-0.859 -12.34,-2.5 -3.98,-1.679 -7.461,-3.988 -10.468,-6.878 -3.051,-3.122 -5.391,-6.68 -7.032,-10.622 -1.679,-3.867 -2.5,-7.968 -2.5,-12.347 0,-4.371 0.821,-8.551 2.5,-12.5 1.641,-3.86 3.981,-7.301 7.032,-10.313 3.007,-2.929 6.488,-5.226 10.468,-6.867 3.95,-1.68 8.051,-2.5 12.34,-2.5 z"
         style="fill:#000000;fill-opacity:1;fill-rule:nonzero;stroke:none"
         id="path44"
         inkscape:connector-curvature="0" /><path
         d="m 729.84,296.051 c -7.11,0 -13.82,1.371 -20.149,4.07 -6.371,2.688 -11.961,6.481 -16.722,11.399 -4.918,4.769 -8.75,10.359 -11.559,16.718 -2.738,6.332 -4.07,13.051 -4.07,20.16 v 69.372 c 0,5.32 1.922,9.89 5.781,13.75 3.828,3.64 8.438,5.468 13.758,5.468 5.191,0 9.68,-1.828 13.43,-5.468 3.75,-3.86 5.671,-8.43 5.781,-13.75 l 0.629,-68.122 c 0,-0.628 -0.117,-1.636 -0.309,-2.968 0.699,-3.239 2.379,-5.86 5,-7.809 2.692,-1.992 5.781,-2.973 9.211,-2.973 3.949,0 7.27,1.481 10,4.532 2.699,3.121 4.07,6.558 4.07,10.308 v 66.723 c 0,5.309 1.868,9.879 5.618,13.75 3.832,3.828 8.441,5.777 13.75,5.777 2.703,0 5.203,-0.539 7.5,-1.558 2.39,-1.051 4.461,-2.461 6.25,-4.219 3.64,-3.871 5.472,-8.441 5.472,-13.75 v -68.59 c -0.121,-0.32 -0.16,-0.75 -0.16,-1.25 0.508,-3.242 2.078,-5.941 4.688,-8.133 2.582,-2.187 5.632,-3.277 9.07,-3.277 1.641,0 3.351,0.309 5.152,0.937 1.879,0.704 3.52,1.723 5,2.973 3.199,2.5 4.848,5.66 4.848,9.527 v 68.122 c 0,5.32 1.91,9.89 5.781,13.75 3.75,3.64 8.32,5.468 13.75,5.468 5.07,0 9.57,-1.828 13.43,-5.468 3.832,-3.86 5.781,-8.43 5.781,-13.75 v -69.372 c 0,-7.109 -1.48,-13.828 -4.371,-20.16 -2.809,-6.359 -6.801,-11.949 -11.871,-16.718 -5,-4.918 -10.789,-8.711 -17.348,-11.399 -6.562,-2.699 -13.402,-4.07 -20.472,-4.07 -12.18,0 -23.278,3.988 -33.278,12.039 -10.121,-8.051 -21.25,-12.039 -33.441,-12.039 z"
         style="fill:#000000;fill-opacity:1;fill-rule:nonzero;stroke:none"
         id="path46"
         inkscape:connector-curvature="0" /><path
         d="m 931.41,297.621 c -6.68,0 -13.09,1.129 -19.219,3.43 -6.171,2.269 -11.57,5.508 -16.25,9.687 -4.691,4.383 -8.363,9.461 -10.941,15.313 -2.621,5.828 -3.91,12.187 -3.91,19.07 v 125 c 0,5.5 1.801,10.149 5.469,13.899 3.64,3.75 8.05,5.628 13.281,5.628 2.582,0 5.16,-0.546 7.66,-1.558 2.5,-1.059 4.691,-2.43 6.559,-4.07 1.761,-1.872 3.171,-4.02 4.222,-6.399 1.129,-2.312 1.719,-4.812 1.719,-7.5 V 344.18 c 0.391,-5.551 4.219,-8.282 11.41,-8.282 2.692,0 5.231,-0.546 7.649,-1.558 2.39,-0.942 4.421,-2.309 6.101,-4.07 1.75,-1.79 3.121,-3.86 4.059,-6.25 0.941,-2.301 1.402,-4.758 1.402,-7.34 0,-2.621 -0.461,-5.121 -1.402,-7.5 -0.938,-2.301 -2.309,-4.34 -4.059,-6.09 -1.68,-1.68 -3.711,-3.051 -6.101,-4.07 -2.418,-0.93 -4.957,-1.399 -7.649,-1.399 z"
         style="fill:#000000;fill-opacity:1;fill-rule:nonzero;stroke:none"
         id="path48"
         inkscape:connector-curvature="0" /><path
         d="m 1032.58,296.051 c -9.69,0 -18.99,1.801 -27.81,5.469 -8.75,3.75 -16.489,8.91 -23.129,15.468 -6.68,6.641 -11.871,14.262 -15.621,22.813 -3.75,8.64 -5.629,17.82 -5.629,27.5 0,9.769 1.879,19.07 5.629,27.82 3.75,8.75 8.941,16.438 15.621,23.117 6.64,6.453 14.379,11.492 23.129,15.16 8.75,3.75 18,5.622 27.81,5.622 9.45,0 18.51,-1.829 27.19,-5.469 8.75,-3.672 16.44,-8.711 23.12,-15.153 6.56,-6.488 11.72,-14.019 15.47,-22.66 3.83,-8.668 5.86,-17.769 6.09,-27.34 0,-5.628 -1.83,-10.117 -5.47,-13.437 -3.55,-3.359 -8.12,-5 -13.75,-5 h -81.25 c 3.21,-5.121 7.27,-9.141 12.19,-12.031 5,-2.93 10.47,-4.379 16.41,-4.379 3.51,0 6.44,0.238 8.75,0.789 2.38,0.621 4.57,1.48 6.56,2.648 3.75,2.391 7.5,3.602 11.25,3.602 5.31,0 9.84,-2.039 13.59,-6.102 1.65,-1.867 2.97,-4.019 3.91,-6.398 1.02,-2.43 1.56,-4.969 1.56,-7.66 0,-3.442 -1.01,-6.641 -2.97,-9.532 -1.87,-2.929 -4.64,-5.429 -8.28,-7.5 -8.55,-4.918 -20,-7.347 -34.37,-7.347 z m 31.87,86.41 c -2.73,5.937 -6.83,10.629 -12.34,14.059 -5.55,3.519 -11.84,5.32 -18.91,5.32 -6.99,0 -13.12,-1.801 -18.43,-5.32 -5.32,-3.551 -9.34,-8.239 -12.04,-14.059 z"
         style="fill:#000000;fill-opacity:1;fill-rule:nonzero;stroke:none"
         id="path50"
         inkscape:connector-curvature="0" /><path
         d="m 1188.83,296.051 c -9.69,0 -18.87,1.801 -27.5,5.469 -8.67,3.64 -16.33,8.789 -22.97,15.468 -6.56,6.563 -11.72,14.141 -15.47,22.813 -3.75,8.64 -5.62,17.82 -5.62,27.5 0,9.687 1.87,18.91 5.62,27.66 3.75,8.75 8.91,16.449 15.47,23.129 6.64,6.558 14.3,11.64 22.97,15.308 8.63,3.75 17.81,5.622 27.5,5.622 8.2,0 14.88,-1.051 20,-3.122 5.08,-2.109 9.26,-5.238 12.5,-9.378 v 44.218 c 0,5.711 1.87,10.551 5.62,14.532 3.52,3.832 8.13,5.781 13.75,5.781 2.58,0 5.08,-0.539 7.5,-1.563 2.5,-1.047 4.61,-2.457 6.41,-4.218 1.76,-1.872 3.12,-4.059 4.06,-6.559 1.02,-2.5 1.56,-5.16 1.56,-7.973 V 367.301 c 0,-9.68 -1.83,-18.86 -5.46,-27.5 -3.68,-8.551 -8.83,-16.172 -15.47,-22.813 -6.57,-6.558 -14.22,-11.718 -22.97,-15.468 -8.67,-3.668 -17.81,-5.469 -27.5,-5.469 z m 0,39.07 c 4.37,0 8.51,0.82 12.5,2.5 4.06,1.641 7.54,3.938 10.47,6.867 3,3.012 5.35,6.453 7.03,10.313 1.64,3.949 2.5,8.129 2.5,12.5 0,4.379 -0.86,8.48 -2.5,12.347 -1.68,3.942 -4.03,7.5 -7.03,10.622 -2.93,2.89 -6.41,5.199 -10.47,6.878 -3.99,1.641 -8.13,2.5 -12.5,2.5 -4.3,0 -8.4,-0.859 -12.35,-2.5 -3.98,-1.679 -7.46,-3.988 -10.46,-6.878 -3.05,-3.122 -5.4,-6.68 -7.04,-10.622 -1.68,-3.867 -2.5,-7.968 -2.5,-12.347 0,-4.371 0.82,-8.551 2.5,-12.5 1.64,-3.86 3.99,-7.301 7.04,-10.313 3,-2.929 6.48,-5.226 10.46,-6.867 3.95,-1.68 8.05,-2.5 12.35,-2.5 z"
         style="fill:#000000;fill-opacity:1;fill-rule:nonzero;stroke:none"
         id="path52"
         inkscape:connector-curvature="0" /><path
         d="m 1326.13,229.02 c -2.5,0 -5,0.589 -7.5,1.718 -2.5,1.063 -4.76,2.5 -6.72,4.383 -2.11,1.789 -3.71,3.859 -4.84,6.25 -1.17,2.301 -1.72,4.801 -1.72,7.5 0,3.359 1.25,6.828 3.75,10.469 2.5,3.672 5.94,6.949 10.31,9.84 4.69,3.121 10.08,5.621 16.25,7.5 6.25,1.871 12.89,2.808 20,2.808 6.02,0 10.86,0.242 14.54,0.633 3.75,0.43 6.71,1.168 8.9,2.18 2.19,0.937 3.63,2.308 4.38,4.07 0.82,1.68 1.25,3.981 1.25,6.867 0,3.992 -1.02,7.114 -2.97,9.532 -9.3,-4.489 -19.46,-6.719 -30.47,-6.719 -9.69,0 -18.87,1.801 -27.5,5.469 -8.67,3.64 -16.33,8.789 -22.97,15.468 -6.56,6.563 -11.72,14.141 -15.47,22.813 -3.75,8.64 -5.62,17.82 -5.62,27.5 0,9.687 1.87,18.91 5.62,27.66 3.75,8.75 8.91,16.449 15.47,23.129 6.64,6.558 14.3,11.64 22.97,15.308 8.63,3.75 17.81,5.622 27.5,5.622 9.69,0 18.83,-1.872 27.5,-5.622 8.75,-3.75 16.41,-8.867 22.97,-15.308 6.56,-6.68 11.64,-14.379 15.31,-23.129 3.75,-8.75 5.63,-17.973 5.63,-27.66 0,-13.981 -3.75,-26.711 -11.25,-38.281 7.89,-8.36 11.87,-20.11 11.87,-35.309 0,-9.371 -1.56,-17.5 -4.69,-24.371 -3.04,-6.879 -7.3,-12.5 -12.81,-16.879 -5,-3.941 -10.94,-6.91 -17.81,-8.91 -6.8,-2.071 -13.99,-3.121 -21.56,-3.121 -2.19,0 -3.87,0.082 -5,0.16 -1.06,0.109 -2.66,0.148 -4.85,0.148 -3.55,0 -6.8,-0.468 -9.69,-1.398 -2.81,-1.02 -5.86,-2.969 -9.06,-5.789 -3.67,-3 -7.58,-4.531 -11.72,-4.531 z m 25.16,106.101 c 4.37,0 8.51,0.82 12.5,2.5 4.06,1.641 7.54,3.938 10.47,6.867 3.01,3.012 5.35,6.453 7.03,10.313 1.64,3.949 2.5,8.129 2.5,12.5 0,4.379 -0.86,8.48 -2.5,12.347 -1.68,3.942 -4.02,7.5 -7.03,10.622 -2.93,2.89 -6.41,5.199 -10.47,6.878 -3.99,1.641 -8.13,2.5 -12.5,2.5 -4.3,0 -8.4,-0.859 -12.34,-2.5 -3.99,-1.679 -7.47,-3.988 -10.47,-6.878 -3.05,-3.122 -5.39,-6.68 -7.03,-10.622 -1.68,-3.867 -2.5,-7.968 -2.5,-12.347 0,-4.371 0.82,-8.551 2.5,-12.5 1.64,-3.86 3.98,-7.301 7.03,-10.313 3,-2.929 6.48,-5.226 10.47,-6.867 3.94,-1.68 8.04,-2.5 12.34,-2.5 z"
         style="fill:#000000;fill-opacity:1;fill-rule:nonzero;stroke:none"
         id="path54"
         inkscape:connector-curvature="0" /><path
         d="m 1508.36,296.051 c -9.69,0 -18.98,1.801 -27.81,5.469 -8.75,3.75 -16.49,8.91 -23.13,15.468 -6.68,6.641 -11.87,14.262 -15.62,22.813 -3.75,8.64 -5.63,17.82 -5.63,27.5 0,9.769 1.88,19.07 5.63,27.82 3.75,8.75 8.94,16.438 15.62,23.117 6.64,6.453 14.38,11.492 23.13,15.16 8.75,3.75 18,5.622 27.81,5.622 9.45,0 18.52,-1.829 27.19,-5.469 8.75,-3.672 16.44,-8.711 23.12,-15.153 6.56,-6.488 11.72,-14.019 15.47,-22.66 3.83,-8.668 5.86,-17.769 6.09,-27.34 0,-5.628 -1.83,-10.117 -5.46,-13.437 -3.56,-3.359 -8.13,-5 -13.75,-5 h -81.25 c 3.2,-5.121 7.26,-9.141 12.18,-12.031 5,-2.93 10.47,-4.379 16.41,-4.379 3.52,0 6.44,0.238 8.75,0.789 2.38,0.621 4.57,1.48 6.56,2.648 3.75,2.391 7.5,3.602 11.25,3.602 5.31,0 9.85,-2.039 13.6,-6.102 1.64,-1.867 2.96,-4.019 3.9,-6.398 1.02,-2.43 1.56,-4.969 1.56,-7.66 0,-3.442 -1.01,-6.641 -2.96,-9.532 -1.88,-2.929 -4.65,-5.429 -8.29,-7.5 -8.55,-4.918 -20,-7.347 -34.37,-7.347 z m 31.87,86.41 c -2.73,5.937 -6.83,10.629 -12.34,14.059 -5.55,3.519 -11.84,5.32 -18.91,5.32 -6.99,0 -13.12,-1.801 -18.43,-5.32 -5.32,-3.551 -9.34,-8.239 -12.03,-14.059 z"
         style="fill:#000000;fill-opacity:1;fill-rule:nonzero;stroke:none"
         id="path56"
         inkscape:connector-curvature="0" /></g></g></svg>